<?xml version="1.0" encoding="UTF-8" standalone="no"?>
<!-- Created with Inkscape (http://www.inkscape.org/) -->

<svg
   xmlns:dc="http://purl.org/dc/elements/1.1/"
   xmlns:cc="http://creativecommons.org/ns#"
   xmlns:rdf="http://www.w3.org/1999/02/22-rdf-syntax-ns#"
   xmlns:svg="http://www.w3.org/2000/svg"
   xmlns="http://www.w3.org/2000/svg"
   xmlns:sodipodi="http://sodipodi.sourceforge.net/DTD/sodipodi-0.dtd"
   xmlns:inkscape="http://www.inkscape.org/namespaces/inkscape"
   width="107.43509mm"
   height="57.591919mm"
   viewBox="0 0 107.43509 57.591919"
   version="1.1"
   id="svg864"
   inkscape:version="0.92.5 (2060ec1f9f, 2020-04-08)"
   sodipodi:docname="colocar.svg">
  <defs
     id="defs858" />
  <sodipodi:namedview
     id="base"
     pagecolor="#ffffff"
     bordercolor="#666666"
     borderopacity="1.0"
     inkscape:pageopacity="0.0"
     inkscape:pageshadow="2"
     inkscape:zoom="0.98994949"
     inkscape:cx="82.199199"
     inkscape:cy="6.38047"
     inkscape:document-units="mm"
     inkscape:current-layer="layer1"
     showgrid="false"
     fit-margin-top="0"
     fit-margin-left="0"
     fit-margin-right="0"
     fit-margin-bottom="0"
     inkscape:window-width="2560"
     inkscape:window-height="1413"
     inkscape:window-x="0"
     inkscape:window-y="27"
     inkscape:window-maximized="1" />
  <metadata
     id="metadata861">
    <rdf:RDF>
      <cc:Work
         rdf:about="">
        <dc:format>image/svg+xml</dc:format>
        <dc:type
           rdf:resource="http://purl.org/dc/dcmitype/StillImage" />
        <dc:title></dc:title>
      </cc:Work>
    </rdf:RDF>
  </metadata>
  <g
     inkscape:label="Layer 1"
     inkscape:groupmode="layer"
     id="layer1"
     transform="translate(-47.359841,-21.166709)">
    <g
       id="g5719">
      <g
         id="g5664">
        <path
           id="path2-3"
           d="M 136.00873,39.286032 H 146.7437 V 48.23184 H 136.00873 Z"
           inkscape:connector-curvature="0"
           style="fill:#c18e5c;stroke-width:0.89458114" />
        <path
           id="path4-6"
           d="m 136.00873,39.286032 v 7.156647 c 4.90498,0 8.95923,-3.102407 9.7062,-7.156647 z"
           inkscape:connector-curvature="0"
           style="fill:#cda57d;stroke-width:0.89458114" />
        <path
           id="path6-7"
           d="M 107.38213,55.388491 H 146.7437 V 69.701789 H 107.38213 Z"
           inkscape:connector-curvature="0"
           style="fill:#c18e5c;stroke-width:0.89458114" />
        <path
           id="path8-5"
           d="m 107.38213,55.388491 v 12.284388 c 1.46175,0.154762 2.95391,0.239745 4.47291,0.239745 12.07774,0 22.55149,-5.083009 27.77406,-12.524133 z"
           inkscape:connector-curvature="0"
           style="fill:#cda57d;stroke-width:0.89458114" />
        <path
           style="fill:#666e77;stroke-width:0.89458114"
           inkscape:connector-curvature="0"
           d="m 103.80381,32.129382 h 46.51822 v 3.578324 h -46.51822 z"
           id="path10-3" />
        <path
           style="fill:#666e77;stroke-width:0.89458114"
           inkscape:connector-curvature="0"
           d="m 103.80381,48.23184 h 46.51822 v 3.578325 h -46.51822 z"
           id="path12-5" />
        <path
           style="fill:#666e77;stroke-width:0.89458114"
           inkscape:connector-curvature="0"
           d="m 103.80381,69.701785 h 46.51822 v 3.578326 h -46.51822 z"
           id="path14" />
        <path
           id="path18-6"
           d="m 100.22548,23.183571 h 3.57833 v 53.674865 h -3.57833 z"
           inkscape:connector-curvature="0"
           style="fill:#88929f;stroke-width:0.89458114" />
        <path
           id="path20-2"
           d="m 150.32203,23.183571 h 3.57832 v 53.674865 h -3.57832 z"
           inkscape:connector-curvature="0"
           style="fill:#88929f;stroke-width:0.89458114" />
        <path
           id="path22-9"
           d="m 139.58705,39.286032 h 3.57832 v 3.578321 h -3.57832 z"
           inkscape:connector-curvature="0"
           style="fill:#ffffff;stroke-width:0.89458114" />
        <path
           id="path24"
           d="M 121.69543,39.286032 H 132.4304 V 48.23184 H 121.69543 Z"
           inkscape:connector-curvature="0"
           style="fill:#c18e5c;stroke-width:0.89458114" />
        <path
           id="path26-1"
           d="m 121.69543,39.286032 v 7.156647 c 4.90499,0 8.95923,-3.102407 9.70621,-7.156647 z"
           inkscape:connector-curvature="0"
           style="fill:#cda57d;stroke-width:0.89458114" />
        <path
           id="path28-2"
           d="m 125.27375,39.286032 h 3.57833 v 3.578321 h -3.57833 z"
           inkscape:connector-curvature="0"
           style="fill:#ffffff;stroke-width:0.89458114" />
        <path
           id="path30-7"
           d="m 107.38213,39.286032 h 10.73498 v 8.945808 h -10.73498 z"
           inkscape:connector-curvature="0"
           style="fill:#c18e5c;stroke-width:0.89458114" />
        <path
           id="path32-0"
           d="m 107.38213,39.286032 v 7.156647 c 4.90499,0 8.95923,-3.102407 9.70621,-7.156647 z"
           inkscape:connector-curvature="0"
           style="fill:#cda57d;stroke-width:0.89458114" />
        <path
           id="path34-9"
           d="m 110.96046,39.286032 h 3.57832 v 3.578321 h -3.57832 z"
           inkscape:connector-curvature="0"
           style="fill:#ffffff;stroke-width:0.89458114" />
        <path
           id="path36-3"
           d="M 136.00873,23.183571 H 146.7437 V 32.12938 H 136.00873 Z"
           inkscape:connector-curvature="0"
           style="fill:#c18e5c;stroke-width:0.89458114" />
        <path
           id="path38-6"
           d="m 136.00873,23.183571 v 7.156649 c 4.90498,0 8.95923,-3.102407 9.7062,-7.156649 z"
           inkscape:connector-curvature="0"
           style="fill:#cda57d;stroke-width:0.89458114" />
        <path
           id="path40-0"
           d="m 139.58705,23.183571 h 3.57832 v 3.578325 h -3.57832 z"
           inkscape:connector-curvature="0"
           style="fill:#ffffff;stroke-width:0.89458114" />
        <path
           id="path42"
           d="M 121.69543,23.183571 H 132.4304 V 32.12938 H 121.69543 Z"
           inkscape:connector-curvature="0"
           style="fill:#c18e5c;stroke-width:0.89458114" />
        <path
           id="path44"
           d="m 121.69543,23.183571 v 7.156649 c 4.90499,0 8.95923,-3.102407 9.70621,-7.156649 z"
           inkscape:connector-curvature="0"
           style="fill:#cda57d;stroke-width:0.89458114" />
        <path
           id="path46"
           d="m 125.27375,23.183571 h 3.57833 v 3.578325 h -3.57833 z"
           inkscape:connector-curvature="0"
           style="fill:#ffffff;stroke-width:0.89458114" />
        <path
           id="path48"
           d="m 107.38213,23.183571 h 10.73498 v 8.945809 h -10.73498 z"
           inkscape:connector-curvature="0"
           style="fill:#c18e5c;stroke-width:0.89458114" />
        <path
           id="path50"
           d="m 107.38213,23.183571 v 7.156649 c 4.90499,0 8.95923,-3.102407 9.70621,-7.156649 z"
           inkscape:connector-curvature="0"
           style="fill:#cda57d;stroke-width:0.89458114" />
        <path
           id="path52"
           d="m 110.96046,23.183571 h 3.57832 v 3.578325 h -3.57832 z"
           inkscape:connector-curvature="0"
           style="fill:#ffffff;stroke-width:0.89458114" />
        <path
           id="path54"
           d="m 124.37917,55.388491 h 5.36749 v 7.156647 h -5.36749 z"
           inkscape:connector-curvature="0"
           style="fill:#ffffff;stroke-width:0.89458114" />
        <path
           inkscape:connector-curvature="0"
           d="m 153.90035,22.28899 h -3.57832 c -0.49471,0 -0.89459,0.400772 -0.89459,0.894581 v 8.05123 h -1.78916 v -8.05123 c 0,-0.493809 -0.39988,-0.894581 -0.89458,-0.894581 h -10.73497 c -0.49471,0 -0.89459,0.400772 -0.89459,0.894581 v 8.05123 h -1.78916 v -8.05123 c 0,-0.493809 -0.39987,-0.894581 -0.89458,-0.894581 h -10.73497 c -0.4947,0 -0.89458,0.400772 -0.89458,0.894581 v 8.05123 h -1.78916 v -8.05123 c 0,-0.493809 -0.39988,-0.894581 -0.89458,-0.894581 h -10.73498 c -0.4947,0 -0.89458,0.400772 -0.89458,0.894581 v 8.05123 h -1.78916 v -8.05123 c 0,-0.493809 -0.39988,-0.894581 -0.89458,-0.894581 h -3.57833 c -0.494697,0 -0.894575,0.400772 -0.894575,0.894581 v 53.674865 c 0,0.493809 0.399878,0.894583 0.894575,0.894583 h 3.57833 c 0.4947,0 0.89458,-0.400774 0.89458,-0.894583 v -2.683743 h 44.72905 v 2.683743 c 0,0.493809 0.39988,0.894583 0.89459,0.894583 h 3.57832 c 0.4947,0 0.89458,-0.400774 0.89458,-0.894583 V 23.183571 c 0,-0.493809 -0.39988,-0.894581 -0.89458,-0.894581 z m -50.99112,53.674864 h -1.78916 V 24.078152 h 1.78916 z m 37.5724,-51.885702 h 1.78917 v 1.789162 h -1.78917 z m -3.57832,0 h 1.78916 v 2.683744 c 0,0.493808 0.39988,0.894581 0.89458,0.894581 h 3.57832 c 0.49471,0 0.89459,-0.400773 0.89459,-0.894581 v -2.683744 h 1.78916 v 7.156649 h -8.94581 z m -10.73497,0 h 1.78916 v 1.789162 h -1.78916 z m -3.57833,0 h 1.78916 v 2.683744 c 0,0.493808 0.39988,0.894581 0.89458,0.894581 h 3.57833 c 0.4947,0 0.89458,-0.400773 0.89458,-0.894581 v -2.683744 h 1.78916 v 7.156649 h -8.94581 z m -10.73497,0 h 1.78916 v 1.789162 h -1.78916 z m -3.57833,0 h 1.78917 v 2.683744 c 0,0.493808 0.39988,0.894581 0.89458,0.894581 h 3.57832 c 0.49471,0 0.89458,-0.400773 0.89458,-0.894581 v -2.683744 h 1.78916 v 7.156649 h -8.94581 z m 41.15073,8.945811 v 1.789161 h -44.72905 v -1.789161 z m -24.15369,23.259106 h 3.57833 v 5.367487 h -3.57833 z m -0.89458,7.156651 h 5.36749 c 0.4947,0 0.89458,-0.400773 0.89458,-0.894582 v -6.262069 h 15.20788 V 68.807207 H 108.27671 V 56.283069 h 15.20788 v 6.262069 c 0,0.493809 0.39988,0.894582 0.89458,0.894582 z m 22.36453,-8.945812 h -39.36157 c -0.4947,0 -0.89458,0.400774 -0.89458,0.894583 v 13.418716 h -1.78916 V 52.704748 h 44.72905 v 16.102459 h -1.78916 V 55.388491 c 0,-0.493809 -0.39988,-0.894583 -0.89458,-0.894583 z m -42.04531,-3.578325 v -1.789161 h 44.72905 v 1.789161 z m 7.15665,-10.734973 h 1.78916 v 1.789165 h -1.78916 z m -0.89458,3.578326 h 3.57832 c 0.49471,0 0.89458,-0.400774 0.89458,-0.894583 V 40.18061 h 1.78916 v 7.156651 h -8.94581 V 40.18061 h 1.78917 v 2.683743 c 0,0.493809 0.39988,0.894583 0.89458,0.894583 z m 15.20788,-3.578326 h 1.78916 v 1.789165 h -1.78916 z m -0.89459,3.578326 h 3.57833 c 0.4947,0 0.89458,-0.400774 0.89458,-0.894583 V 40.18061 h 1.78916 v 7.156651 h -8.94581 V 40.18061 h 1.78916 v 2.683743 c 0,0.493809 0.39988,0.894583 0.89458,0.894583 z m 15.20788,-3.578326 h 1.78917 v 1.789165 h -1.78917 z m -0.89458,3.578326 h 3.57832 c 0.49471,0 0.89459,-0.400774 0.89459,-0.894583 V 40.18061 h 1.78916 v 7.156651 h -8.94581 V 40.18061 h 1.78916 v 2.683743 c 0,0.493809 0.39988,0.894583 0.89458,0.894583 z m 8.05123,3.578325 v -8.051229 c 0,-0.493809 -0.39988,-0.894583 -0.89458,-0.894583 h -10.73497 c -0.49471,0 -0.89459,0.400774 -0.89459,0.894583 v 8.051229 h -1.78916 v -8.051229 c 0,-0.493809 -0.39987,-0.894583 -0.89458,-0.894583 h -10.73497 c -0.4947,0 -0.89458,0.400774 -0.89458,0.894583 v 8.051229 h -1.78916 v -8.051229 c 0,-0.493809 -0.39988,-0.894583 -0.89458,-0.894583 h -10.73498 c -0.4947,0 -0.89458,0.400774 -0.89458,0.894583 v 8.051229 h -1.78916 V 36.602289 h 44.72905 v 10.734972 z m -42.93989,25.048267 v -1.78916 h 44.72905 v 1.78916 z m 48.30738,3.578326 h -1.78916 V 24.078152 h 1.78916 z"
           id="path56"
           style="stroke-width:0.89458114" />
        <path
           inkscape:connector-curvature="0"
           d="m 140.48163,65.228881 h 3.57833 v 1.789161 h -3.57833 z"
           id="path58"
           style="stroke-width:0.89458114" />
        <path
           inkscape:connector-curvature="0"
           d="m 140.48163,61.650556 h 3.57833 v 1.789164 h -3.57833 z"
           id="path60"
           style="stroke-width:0.89458114" />
      </g>
      <g
         id="g44"
         transform="matrix(0.74093163,0,0,0.74093163,46.618909,32.079936)">
        <path
           id="path2"
           d="M 6,12 H 34 V 43 H 6 Z"
           inkscape:connector-curvature="0"
           style="fill:#c7e2fb" />
        <path
           id="path4"
           d="M 6,35.958 C 19.47,35.247 30.36,25.019 31.827,12 H 6 Z"
           inkscape:connector-curvature="0"
           style="fill:#ebf7fe" />
        <path
           id="path6"
           d="M 48,32 H 62 V 44 H 48 Z"
           inkscape:connector-curvature="0"
           style="fill:#c18e5c" />
        <path
           id="path8"
           d="M 48,41.638 C 48.798,41.867 49.633,42 50.5,42 55.747,42 60,37.523 60,32 H 48 Z"
           inkscape:connector-curvature="0"
           style="fill:#cda57d" />
        <path
           id="path10"
           d="M 44,44 H 60 V 56 H 44 Z"
           inkscape:connector-curvature="0"
           style="fill:#976947" />
        <path
           id="path12"
           d="m 44,44 v 9.953 c 0.332,0.02 0.662,0.047 1,0.047 6.794,0 12.526,-4.219 14.371,-10 z"
           inkscape:connector-curvature="0"
           style="fill:#ac876c" />
        <circle
           id="circle14"
           r="4"
           cy="58"
           cx="6"
           style="fill:#666e77" />
        <circle
           id="circle16"
           r="4"
           cy="58"
           cx="42"
           style="fill:#666e77" />
        <path
           id="path18"
           d="m 45.445,56 c 0.344,0.59 0.555,1.268 0.555,2 0,0.732 -0.211,1.41 -0.555,2 H 62 v -4 z"
           inkscape:connector-curvature="0"
           style="fill:#a0a8b2" />
        <path
           id="path20"
           d="m 42,54 c 0.732,0 1.41,0.211 2,0.555 V 2 H 40 V 54.555 C 40.59,54.211 41.268,54 42,54 Z"
           inkscape:connector-curvature="0"
           style="fill:#a0a8b2" />
        <g
           id="g24">
          <path
             id="path22"
             d="M 40,54.555 V 47.452 C 38.896,45.956 37.14,45 35.187,45 H 12 V 40 C 12,35.582 8.418,32 4,32 V 54.555 C 4.59,54.211 5.268,54 6,54 c 2.209,0 4,1.791 4,4 h 28 c 0,-1.477 0.81,-2.753 2,-3.445 z"
             inkscape:connector-curvature="0"
             style="fill:#f2c351" />
        </g>
        <path
           id="path26"
           d="m 12,40 v 1 h 12 v -2 c 0,-1.105 -0.895,-2 -2,-2 H 17.078 C 15.931,37 15,36.069 15,34.922 V 25.5 C 15,24.119 13.881,23 12.5,23 11.119,23 10,24.119 10,25.5 v 9.221 c 1.241,1.409 2,3.253 2,5.279 z"
           inkscape:connector-curvature="0"
           style="fill:#666e77" />
        <path
           id="path28"
           d="m 12,45 h 23.187 c 0.276,0 0.546,0.024 0.813,0.061 V 35 h -4 v 6 H 12 Z"
           inkscape:connector-curvature="0"
           style="fill:#a0a8b2" />
        <path
           id="path30"
           d="m 4,8 h 32 v 4 H 4 Z"
           inkscape:connector-curvature="0"
           style="fill:#f2c351" />
        <path
           id="path32"
           d="m 14,52 h 20 v 6 H 14 Z"
           inkscape:connector-curvature="0"
           style="fill:#88929f" />
        <path
           id="path34"
           d="m 50,44 h 4 v 6 h -4 z"
           inkscape:connector-curvature="0"
           style="fill:#ffffff" />
        <path
           id="path36"
           d="m 53,32 h 4 v 6 h -4 z"
           inkscape:connector-curvature="0"
           style="fill:#ffffff" />
        <path
           id="path38"
           d="m 44,4 h 2 c 1.105,0 2,0.895 2,2 v 14 c 0,1.105 -0.895,2 -2,2 h -2 z"
           inkscape:connector-curvature="0"
           style="fill:#666e77" />
        <g
           id="g42">
          <path
             id="path40"
             d="m 62,45 c 0.552,0 1,-0.448 1,-1 V 32 c 0,-0.552 -0.448,-1 -1,-1 H 48 c -0.552,0 -1,0.448 -1,1 V 43 H 45 V 23 h 1 c 1.654,0 3,-1.346 3,-3 V 6 C 49,4.346 47.654,3 46,3 H 45 V 2 C 45,1.448 44.552,1 44,1 h -3.956 c -0.552,0 -1,0.447 -1,0.999 L 39.002,45.145 C 38.391,44.748 37.72,44.45 37,44.26 V 35 c 0,-0.552 -0.448,-1 -1,-1 H 35 V 13 h 1 c 0.552,0 1,-0.448 1,-1 V 8 C 37,7.448 36.552,7 36,7 H 4 C 3.448,7 3,7.448 3,8 v 4 c 0,0.552 0.448,1 1,1 H 5 V 31.059 C 4.671,31.022 4.338,31 4,31 3.448,31 3,31.448 3,32 V 54 H 3.031 C 1.806,54.912 1,56.359 1,58 c 0,2.757 2.243,5 5,5 2.414,0 4.434,-1.721 4.899,-4 h 26.202 c 0.465,2.279 2.484,4 4.899,4 1.641,0 3.088,-0.806 4,-2.031 V 61 h 16 c 0.552,0 1,-0.448 1,-1 v -4 c 0,-0.552 -0.448,-1 -1,-1 H 61 V 45 Z M 45,5 h 1 c 0.551,0 1,0.449 1,1 v 14 c 0,0.551 -0.449,1 -1,1 h -1 z m 9,28 h 2 v 4 H 54 Z M 41.043,3 H 43 v 50.101 c -0.058,-0.012 -0.121,-0.008 -0.18,-0.018 l -0.8,-3.602 C 41.826,48.608 41.469,47.815 41,47.109 Z M 5,9 h 30 v 2 H 5 Z m 24.293,21.293 -1.793,1.793 -0.793,-0.793 -1.414,1.414 0.793,0.793 -1.793,1.793 1.414,1.414 1.793,-1.793 3.5,3.5 V 40 h -6 v -1 c 0,-1.654 -1.346,-3 -3,-3 H 17.079 C 16.484,36 16,35.516 16,34.921 V 25.5 C 16,23.57 14.43,22 12.5,22 10.57,22 9,23.57 9,25.5 v 7.022 C 8.384,32.109 7.711,31.778 7,31.525 V 13 h 26 v 21 h -1 c -0.552,0 -1,0.448 -1,1 v 0.586 L 28.914,33.5 30.707,31.707 Z M 11,25.5 c 0,-0.827 0.673,-1.5 1.5,-1.5 0.827,0 1.5,0.673 1.5,1.5 v 9.421 C 14,36.619 15.381,38 17.079,38 H 22 c 0.551,0 1,0.449 1,1 v 1 H 13 c 0,-2.136 -0.752,-4.099 -2,-5.644 z M 13,42 h 19 c 0.552,0 1,-0.448 1,-1 v -5 h 2 v 8 H 13 Z M 6,61 c -1.654,0 -3,-1.346 -3,-3 0,-1.654 1.346,-3 3,-3 1.654,0 3,1.346 3,3 0,1.654 -1.346,3 -3,3 z M 33,57 H 15 v -4 h 18 z m 4.101,0 H 35 v -5 c 0,-0.552 -0.448,-1 -1,-1 H 14 c -0.552,0 -1,0.448 -1,1 v 5 H 10.899 C 10.434,54.721 8.414,53 6,53 5.658,53 5.323,53.035 5,53.101 v -20.03 c 3.388,0.487 6,3.408 6,6.929 v 5 c 0,0.552 0.448,1 1,1 h 23.187 c 2.362,0 4.369,1.61 4.881,3.915 l 0.722,3.25 C 38.937,53.63 37.485,55.117 37.101,57 Z M 42,61 c -1.654,0 -3,-1.346 -3,-3 0,-1.654 1.346,-3 3,-3 1.654,0 3,1.346 3,3 0,1.654 -1.346,3 -3,3 z m 7,-16 v 5 c 0,0.552 0.448,1 1,1 h 4 c 0.552,0 1,-0.448 1,-1 v -5 h 4 V 55 H 46 v 0.031 C 45.716,54.649 45.379,54.313 45,54.026 V 45 Z m 2,4 v -4 h 2 v 4 z M 61,59 H 46.899 C 46.965,58.677 47,58.342 47,58 47,57.658 46.965,57.323 46.899,57 H 61 Z M 49,43 V 33 h 3 v 5 c 0,0.552 0.448,1 1,1 h 4 c 0.552,0 1,-0.448 1,-1 v -5 h 3 v 10 z"
             inkscape:connector-curvature="0" />
        </g>
      </g>
      <path
         id="path5330"
         d="m 83.476193,26.784232 c 0.271023,-0.12196 0.425183,-0.29783 0.425183,-0.48269 0,-0.18486 -0.156655,-0.36074 -0.425183,-0.48269 l -9.945836,-4.49311 c -0.36551,-0.16689 -0.887665,-0.2054 -1.33274,-0.10142 -0.445075,0.10399 -0.728532,0.33249 -0.728532,0.58411 v 2.56749 H 55.307102 c -0.686261,0 -1.243227,0.28756 -1.243227,0.64187 v 2.56749 c 0,0.35432 0.556966,0.64187 1.243227,0.64187 h 16.161983 v 2.5675 c 0,0.25161 0.285942,0.48012 0.728532,0.5841 0.445075,0.10527 0.964745,0.0642 1.33274,-0.10141 z"
         style="fill:#4e9a06;stroke-width:0.05583161"
         inkscape:connector-curvature="0" />
    </g>
    <g
       id="g5334"
       transform="matrix(0.26458333,0,0,0.26458333,-18.28847,-47.090024)">
</g>
    <g
       id="g5336"
       transform="matrix(0.26458333,0,0,0.26458333,-18.28847,-47.090024)">
</g>
    <g
       id="g5338"
       transform="matrix(0.26458333,0,0,0.26458333,-18.28847,-47.090024)">
</g>
    <g
       id="g5340"
       transform="matrix(0.26458333,0,0,0.26458333,-18.28847,-47.090024)">
</g>
    <g
       id="g5342"
       transform="matrix(0.26458333,0,0,0.26458333,-18.28847,-47.090024)">
</g>
    <g
       id="g5344"
       transform="matrix(0.26458333,0,0,0.26458333,-18.28847,-47.090024)">
</g>
    <g
       id="g5346"
       transform="matrix(0.26458333,0,0,0.26458333,-18.28847,-47.090024)">
</g>
    <g
       id="g5348"
       transform="matrix(0.26458333,0,0,0.26458333,-18.28847,-47.090024)">
</g>
    <g
       id="g5350"
       transform="matrix(0.26458333,0,0,0.26458333,-18.28847,-47.090024)">
</g>
    <g
       id="g5352"
       transform="matrix(0.26458333,0,0,0.26458333,-18.28847,-47.090024)">
</g>
    <g
       id="g5354"
       transform="matrix(0.26458333,0,0,0.26458333,-18.28847,-47.090024)">
</g>
    <g
       id="g5356"
       transform="matrix(0.26458333,0,0,0.26458333,-18.28847,-47.090024)">
</g>
    <g
       id="g5358"
       transform="matrix(0.26458333,0,0,0.26458333,-18.28847,-47.090024)">
</g>
    <g
       id="g5360"
       transform="matrix(0.26458333,0,0,0.26458333,-18.28847,-47.090024)">
</g>
    <g
       id="g5362"
       transform="matrix(0.26458333,0,0,0.26458333,-18.28847,-47.090024)">
</g>
  </g>
</svg>
