<svg id="Layer_3" enable-background="new 0 0 64 64" height="512" viewBox="0 0 64 64" width="512" xmlns="http://www.w3.org/2000/svg"><g><path d="m6 12h28v31h-28z" fill="#c7e2fb"/><path d="m6 35.958c13.47-.711 24.36-10.939 25.827-23.958h-25.827z" fill="#ebf7fe"/><path d="m48 32h14v12h-14z" fill="#c18e5c"/><path d="m48 41.638c.798.229 1.633.362 2.5.362 5.247 0 9.5-4.477 9.5-10h-12z" fill="#cda57d"/><path d="m44 44h16v12h-16z" fill="#976947"/><path d="m44 44v9.953c.332.02.662.047 1 .047 6.794 0 12.526-4.219 14.371-10z" fill="#ac876c"/><circle cx="6" cy="58" fill="#666e77" r="4"/><circle cx="42" cy="58" fill="#666e77" r="4"/><path d="m45.445 56c.344.59.555 1.268.555 2s-.211 1.41-.555 2h16.555v-4z" fill="#a0a8b2"/><path d="m42 54c.732 0 1.41.211 2 .555v-52.555h-4v52.555c.59-.344 1.268-.555 2-.555z" fill="#a0a8b2"/><g><path d="m40 54.555v-7.103c-1.104-1.496-2.86-2.452-4.813-2.452h-23.187v-5c0-4.418-3.582-8-8-8v22.555c.59-.344 1.268-.555 2-.555 2.209 0 4 1.791 4 4h28c0-1.477.81-2.753 2-3.445z" fill="#f2c351"/></g><path d="m12 40v1h12v-2c0-1.105-.895-2-2-2h-4.922c-1.147 0-2.078-.931-2.078-2.078v-9.422c0-1.381-1.119-2.5-2.5-2.5s-2.5 1.119-2.5 2.5v9.221c1.241 1.409 2 3.253 2 5.279z" fill="#666e77"/><path d="m12 45h23.187c.276 0 .546.024.813.061v-10.061h-4v6h-20z" fill="#a0a8b2"/><path d="m4 8h32v4h-32z" fill="#f2c351"/><path d="m14 52h20v6h-20z" fill="#88929f"/><path d="m50 44h4v6h-4z" fill="#fff"/><path d="m53 32h4v6h-4z" fill="#fff"/><path d="m44 4h2c1.105 0 2 .895 2 2v14c0 1.105-.895 2-2 2h-2z" fill="#666e77"/><g><path d="m62 45c.552 0 1-.448 1-1v-12c0-.552-.448-1-1-1h-14c-.552 0-1 .448-1 1v11h-2v-20h1c1.654 0 3-1.346 3-3v-14c0-1.654-1.346-3-3-3h-1v-1c0-.552-.448-1-1-1h-3.956c-.552 0-1 .447-1 .999l-.042 43.146c-.611-.397-1.282-.695-2.002-.885v-9.26c0-.552-.448-1-1-1h-1v-21h1c.552 0 1-.448 1-1v-4c0-.552-.448-1-1-1h-32c-.552 0-1 .448-1 1v4c0 .552.448 1 1 1h1v18.059c-.329-.037-.662-.059-1-.059-.552 0-1 .448-1 1v22h.031c-1.225.912-2.031 2.359-2.031 4 0 2.757 2.243 5 5 5 2.414 0 4.434-1.721 4.899-4h26.202c.465 2.279 2.484 4 4.899 4 1.641 0 3.088-.806 4-2.031v.031h16c.552 0 1-.448 1-1v-4c0-.552-.448-1-1-1h-1v-10zm-17-40h1c.551 0 1 .449 1 1v14c0 .551-.449 1-1 1h-1zm9 28h2v4h-2zm-12.957-30h1.957v50.101c-.058-.012-.121-.008-.18-.018l-.8-3.602c-.194-.873-.551-1.666-1.02-2.372zm-36.043 6h30v2h-30zm24.293 21.293-1.793 1.793-.793-.793-1.414 1.414.793.793-1.793 1.793 1.414 1.414 1.793-1.793 3.5 3.5v1.586h-6v-1c0-1.654-1.346-3-3-3h-4.921c-.595 0-1.079-.484-1.079-1.079v-9.421c0-1.93-1.57-3.5-3.5-3.5s-3.5 1.57-3.5 3.5v7.022c-.616-.413-1.289-.744-2-.997v-18.525h26v21h-1c-.552 0-1 .448-1 1v.586l-2.086-2.086 1.793-1.793zm-18.293-4.793c0-.827.673-1.5 1.5-1.5s1.5.673 1.5 1.5v9.421c0 1.698 1.381 3.079 3.079 3.079h4.921c.551 0 1 .449 1 1v1h-10c0-2.136-.752-4.099-2-5.644zm2 16.5h19c.552 0 1-.448 1-1v-5h2v8h-22zm-7 19c-1.654 0-3-1.346-3-3s1.346-3 3-3 3 1.346 3 3-1.346 3-3 3zm27-4h-18v-4h18zm4.101 0h-2.101v-5c0-.552-.448-1-1-1h-20c-.552 0-1 .448-1 1v5h-2.101c-.465-2.279-2.485-4-4.899-4-.342 0-.677.035-1 .101v-20.03c3.388.487 6 3.408 6 6.929v5c0 .552.448 1 1 1h23.187c2.362 0 4.369 1.61 4.881 3.915l.722 3.25c-1.853.465-3.305 1.952-3.689 3.835zm4.899 4c-1.654 0-3-1.346-3-3s1.346-3 3-3 3 1.346 3 3-1.346 3-3 3zm7-16v5c0 .552.448 1 1 1h4c.552 0 1-.448 1-1v-5h4v10h-13v.031c-.284-.382-.621-.718-1-1.005v-9.026zm2 4v-4h2v4zm10 10h-14.101c.066-.323.101-.658.101-1s-.035-.677-.101-1h14.101zm-12-16v-10h3v5c0 .552.448 1 1 1h4c.552 0 1-.448 1-1v-5h3v10z"/></g></g></svg>