<svg id="Layer_3" enable-background="new 0 0 64 64" height="512" viewBox="0 0 64 64" width="512" xmlns="http://www.w3.org/2000/svg"><g><path d="m42 20h12v10h-12z" fill="#c18e5c"/><path d="m42 20v8c5.483 0 10.015-3.468 10.85-8z" fill="#cda57d"/><path d="m10 38h44v16h-44z" fill="#c18e5c"/><path d="m10 38v13.732c1.634.173 3.302.268 5 .268 13.501 0 25.209-5.682 31.047-14z" fill="#cda57d"/><g fill="#666e77"><path d="m6 12h52v4h-52z"/><path d="m6 30h52v4h-52z"/><path d="m6 54h52v4h-52z"/></g><path d="m2 2h4v60h-4z" fill="#88929f"/><path d="m58 2h4v60h-4z" fill="#88929f"/><path d="m46 20h4v4h-4z" fill="#fff"/><path d="m26 20h12v10h-12z" fill="#c18e5c"/><path d="m26 20v8c5.483 0 10.015-3.468 10.85-8z" fill="#cda57d"/><path d="m30 20h4v4h-4z" fill="#fff"/><path d="m10 20h12v10h-12z" fill="#c18e5c"/><path d="m10 20v8c5.483 0 10.015-3.468 10.85-8z" fill="#cda57d"/><path d="m14 20h4v4h-4z" fill="#fff"/><path d="m42 2h12v10h-12z" fill="#c18e5c"/><path d="m42 2v8c5.483 0 10.015-3.468 10.85-8z" fill="#cda57d"/><path d="m46 2h4v4h-4z" fill="#fff"/><path d="m26 2h12v10h-12z" fill="#c18e5c"/><path d="m26 2v8c5.483 0 10.015-3.468 10.85-8z" fill="#cda57d"/><path d="m30 2h4v4h-4z" fill="#fff"/><path d="m10 2h12v10h-12z" fill="#c18e5c"/><path d="m10 2v8c5.483 0 10.015-3.468 10.85-8z" fill="#cda57d"/><path d="m14 2h4v4h-4z" fill="#fff"/><path d="m29 38h6v8h-6z" fill="#fff"/><g><path d="m62 1h-4c-.553 0-1 .448-1 1v9h-2v-9c0-.552-.447-1-1-1h-12c-.553 0-1 .448-1 1v9h-2v-9c0-.552-.447-1-1-1h-12c-.553 0-1 .448-1 1v9h-2v-9c0-.552-.447-1-1-1h-12c-.553 0-1 .448-1 1v9h-2v-9c0-.552-.447-1-1-1h-4c-.553 0-1 .448-1 1v60c0 .552.447 1 1 1h4c.553 0 1-.448 1-1v-3h50v3c0 .552.447 1 1 1h4c.553 0 1-.448 1-1v-60c0-.552-.447-1-1-1zm-57 60h-2v-58h2zm42-58h2v2h-2zm-4 0h2v3c0 .552.447 1 1 1h4c.553 0 1-.448 1-1v-3h2v8h-10zm-12 0h2v2h-2zm-4 0h2v3c0 .552.447 1 1 1h4c.553 0 1-.448 1-1v-3h2v8h-10zm-12 0h2v2h-2zm-4 0h2v3c0 .552.447 1 1 1h4c.553 0 1-.448 1-1v-3h2v8h-10zm46 10v2h-50v-2zm-27 26h4v6h-4zm-1 8h6c.553 0 1-.448 1-1v-7h17v14h-42v-14h17v7c0 .552.447 1 1 1zm25-10h-44c-.553 0-1 .448-1 1v15h-2v-18h50v18h-2v-15c0-.552-.447-1-1-1zm-47-4v-2h50v2zm8-12h2v2h-2zm-1 4h4c.553 0 1-.448 1-1v-3h2v8h-10v-8h2v3c0 .552.447 1 1 1zm17-4h2v2h-2zm-1 4h4c.553 0 1-.448 1-1v-3h2v8h-10v-8h2v3c0 .552.447 1 1 1zm17-4h2v2h-2zm-1 4h4c.553 0 1-.448 1-1v-3h2v8h-10v-8h2v3c0 .552.447 1 1 1zm9 4v-9c0-.552-.447-1-1-1h-12c-.553 0-1 .448-1 1v9h-2v-9c0-.552-.447-1-1-1h-12c-.553 0-1 .448-1 1v9h-2v-9c0-.552-.447-1-1-1h-12c-.553 0-1 .448-1 1v9h-2v-12h50v12zm-48 28v-2h50v2zm54 4h-2v-58h2z"/><path d="m47 49h4v2h-4z"/><path d="m47 45h4v2h-4z"/></g></g></svg>